<?xml version="1.0" encoding="utf-8"?>
<!-- Generator: Adobe Illustrator 25.4.1, SVG Export Plug-In . SVG Version: 6.00 Build 0)  -->
<svg version="1.1" id="Layer_1" xmlns="http://www.w3.org/2000/svg" xmlns:xlink="http://www.w3.org/1999/xlink" x="0px" y="0px"
	 viewBox="0 0 430.8 501.6" style="enable-background:new 0 0 430.8 501.6;" xml:space="preserve">
<style type="text/css">
	.st0{fill:none;stroke:#231F20;stroke-width:4;stroke-miterlimit:10;}
	.st1{fill:#C7E8F4;}
	.st2{fill:none;stroke:#85CDE8;stroke-miterlimit:10;}
	.st3{fill:#85CDE8;}
	.st4{fill:#14A0D2;}
	.st5{fill:none;stroke:#0097CF;stroke-width:2;stroke-miterlimit:10;}
	.st6{fill:#0097CF;}
	.st7{fill:#B0DFF0;}
	.st8{fill:#38AED9;}
	.st9{fill:#61BFE1;}
	.st10{fill:#66C1E2;}
	.st11{fill:#089BD0;}
	.st12{fill:#37AED9;}
	.st13{fill:#9ED8ED;}
	.st14{fill:#F2F8F9;}
	.st15{fill:#02769F;}
	.st16{fill:none;stroke:#02769F;stroke-miterlimit:10;}
	.st17{fill:#231F20;}
</style>
<g>
	<path class="st0" d="M160.6,317.3"/>
	<polygon class="st1" points="238.6,209 297,181.3 350.9,201.3 320.6,263.2 282.7,279.5 260,298 	"/>
	<polyline class="st1" points="207.9,208.7 141.8,180.8 93,190 118.9,257.4 147.1,268.1 179.9,290.5 207.9,208.7 	"/>
	<path class="st2" d="M241.3,208.9"/>
	<polygon class="st3" points="258.7,248.1 265.7,233.1 271.4,216.7 300.1,212.7 314.8,230 309.5,248.1 282.7,258.1 	"/>
	<polygon class="st3" points="185.2,245.1 178.9,227.4 172.5,207.3 144.1,203.7 129.4,224 140.1,242.7 170.8,252.8 	"/>
	<polygon class="st3" points="205.2,207 173.2,310.9 221.8,330.6 262.4,307.5 239,208.7 	"/>
	<polygon class="st4" points="258.7,248.1 264.7,233.4 271.5,216.9 299.6,212.7 314.6,229.9 297.2,217.4 274.4,222 	"/>
	<polygon class="st4" points="184.9,244.9 172.4,207.3 144.3,203.7 129.6,224 145.1,208.7 169.8,211.3 	"/>
	<polyline class="st5" points="177,242.1 171.7,234.4 141.1,230.7 136.4,226 	"/>
	<polyline class="st5" points="268,244.9 273.8,239.6 303.1,237.1 308.8,231.6 	"/>
	<polygon class="st6" points="173,310.9 185,291.7 184.2,275.1 	"/>
	<polygon class="st6" points="263.4,315.8 256.9,296.4 255.8,279.3 262.1,296.7 	"/>
	<polygon class="st7" points="204.2,208.3 179.5,174.3 200.9,114.8 238.3,114.5 260.4,172.9 239,208.7 	"/>
	<polygon class="st8" points="140.7,139.5 128.7,101.6 87.7,27 61.2,30.8 58.8,60.2 72.3,109.4 73.2,144.4 94.2,187.1 	"/>
	<polygon class="st8" points="277.4,122.5 307.7,89.6 339.5,61.7 359.6,35.7 369.4,29.1 380.3,59.5 381.6,85.8 378.3,133.4 
		345.8,163.1 332.9,184.7 	"/>
	<polygon class="st9" points="248,114.8 191.9,114.5 145.1,130.5 91.7,190 63,266.8 114.3,291.7 120.4,314.4 109,343.8 138.4,349.8 
		163.1,385.5 167.8,417.9 178.9,408.6 213.2,491.4 260.6,413.3 269.8,420.1 278.4,390.3 310.3,346.2 328.8,352.1 324.8,325.7 
		321.1,297.3 376,277.3 350.9,200 293.9,134.5 	"/>
	<polygon class="st10" points="275.4,127.5 291.8,134.4 317.8,163.6 308.7,137.2 310.8,127.2 321.9,117 312.7,119.2 314.5,110.5 
		329.9,94.2 338.1,88.3 336.1,86.8 354.9,68 361.6,43 370.6,45 376.2,63.1 375.9,98.8 371.9,134.9 348.7,153.2 332.1,180.2 
		349.2,200.3 362.6,156.6 380.6,136.5 383.6,60.4 374.9,25.3 359.5,21.9 351.9,25.7 284.4,76.9 264.8,110.1 	"/>
	<polygon class="st10" points="130.4,147.1 146.3,134.5 166.2,123.1 162.1,94 120.2,48.6 89.9,21.9 64,26.1 59.2,30.3 56.1,61.5 
		66.3,101.6 69.4,153.2 93.4,188.1 113.9,165.2 108.2,158.1 92.1,157.7 80.1,143.4 79.2,110.9 70.8,74.9 66.3,52.1 68.5,37.9 
		83.7,39 89.7,62.4 113.5,86 120.6,114 128.2,127.9 	"/>
	<polygon class="st11" points="119.7,312.8 56.1,275.9 91.7,189.9 104.2,174.4 69.2,269.3 114.4,291.6 	"/>
	<polygon class="st1" points="177.5,304.2 131.8,282.5 139.8,309.9 178.9,341.9 	"/>
	<polygon class="st1" points="258,345.6 255.7,308.9 305.4,282.5 304.1,306.9 	"/>
	<polygon class="st12" points="238.6,209 279.2,193.8 319.9,197.8 346,221.2 320.6,263.2 282.7,279.5 260,298 	"/>
	<polyline class="st12" points="213.1,211.8 177.3,196.7 131.6,189.1 97.7,210.5 112.4,240.3 124,260.6 152.3,271.3 185,293.6 
		213.1,211.8 	"/>
	<path class="st2" d="M241.3,208.9"/>
	<polygon class="st3" points="258.7,248.1 265.7,233.1 271.4,216.7 300.1,212.7 316.8,226.5 309.5,248.1 275.8,253.6 	"/>
	<polygon class="st3" points="185.2,245.1 176.1,225.2 169.5,212.5 144.1,203.7 129.4,224 140.1,242.7 169.3,249.2 	"/>
	<polygon class="st13" points="176.7,338.6 185.5,350.8 199.9,358.3 226.2,361.4 253.9,352.8 256.3,346.4 240.5,348.8 218.3,342.6 
		187.5,346.4 	"/>
	<polygon class="st3" points="205.2,207 173.2,310.9 221.8,330.6 262.4,307.5 239,208.7 	"/>
	<polygon class="st14" points="198.1,310.2 194.8,307.1 194.4,301 181.7,294.3 173.1,311 176.7,339.8 189,347.8 218.8,343.4 
		219.1,334.9 	"/>
	<polygon class="st14" points="220.4,343.8 220.4,333.4 243.9,313.5 247.4,312.9 250.8,305.3 259.8,301.3 264.3,316.4 266,328.8 
		256.9,347.8 240.7,350.1 	"/>
	<polygon class="st15" points="202.2,326.5 215.9,334.9 226.4,335.3 236.6,327.9 242.7,321.1 244,310.4 232,299.7 215,297.1 
		199,306 197.2,316.7 	"/>
	<polygon class="st4" points="258.7,248.1 264.7,233.4 271.5,216.9 298.6,209.8 316.8,226.5 297.5,215.7 274.4,222 	"/>
	<polygon class="st4" points="184.9,244.9 171.5,210.5 144.3,203.7 129.6,224 145.1,208.7 167.8,214.8 	"/>
	<polygon class="st15" points="376.8,25.3 374.8,25.4 356.6,23.9 344.3,35.8 322.2,57.1 286.3,83.8 272.1,106.3 277.4,127.9 
		247.7,114.8 272.8,78.5 319.5,46.6 354.5,17.7 	"/>
	<polygon class="st6" points="173,310.9 185,291.7 184.2,275.1 	"/>
	<polygon class="st6" points="263.4,315.8 256.9,296.4 255.8,279.3 262.1,296.7 	"/>
	<polygon class="st11" points="350.9,200.1 382.7,277.3 333.3,310.7 333.7,336.8 325.4,328.1 320.3,297.3 373.4,271.9 338,182.4 
		350.6,199.7 	"/>
	<polygon class="st11" points="67.4,24.6 59.8,30.5 57.5,61.4 66.1,99 70.8,154.2 93.5,187.9 90.2,194.8 67,155.2 62.3,100.5 
		53.6,61.1 56.3,29 	"/>
	<polygon class="st11" points="374.8,25.3 376.7,25.3 388.4,60.5 385,138.3 366.7,160 349,205.1 345.3,195.3 362.1,156.3 
		379.8,136.8 383.3,60.2 	"/>
	<polygon class="st15" points="62.1,26.7 67.9,25.8 90.2,22 120.2,49.4 162.1,93.9 166.1,123.7 191.5,115.3 182.6,95.3 94.9,12.9 	
		"/>
	<polyline class="st14" points="277.9,248.1 268.2,244.5 280.9,230.7 295.6,225.3 305.2,231.5 303.9,240 285.2,247 	"/>
	<polygon class="st15" points="289.6,227.2 281.7,230.4 282.1,233.3 284.2,238.8 289,242.4 291.5,237.3 290.7,230.4 	"/>
	<polygon class="st14" points="166.7,228.6 149.1,218.3 139.1,225 140.4,233.7 166,243.7 176.8,241.9 	"/>
	<polygon class="st15" points="154.7,222.3 161.9,225.5 161.5,228.4 159.6,233.9 155.2,237.5 152.9,232.4 153.6,225.5 	"/>
	<polygon class="st16" points="268,244.9 281.2,248.6 303.6,239.9 305.5,231.6 295.9,225.4 280.9,230.7 	"/>
	<polygon class="st16" points="177,242.1 166,243.7 140.4,233.5 138.9,225.2 149.2,218.3 166.7,228.7 	"/>
	<path class="st17" d="M281.2,249.3l-14.4-4l13.7-16.6l15.5-6.1l12.6,8l-4.5,9.7L281.2,249.3z M269.3,244.6l11.9,3.3l21.4-9l2.1-6.9
		l-8.9-5.8l-14.6,5.1L269.3,244.6z"/>
	<path class="st17" d="M165.9,244.4l-0.2-0.1L139.8,234l-3.7-9.8l12.9-8.9l18.6,11.4l10.7,15.8L165.9,244.4z M141.6,232.5L166,243
		l9.8-1.4l-9.5-12.3l-17.1-10.2l-9.5,6.4L141.6,232.5z"/>
	<polygon class="st13" points="197.3,315.7 203.9,308.4 215.2,303.6 231.2,304.5 243.3,316.7 244.3,309.5 232.7,298.6 215.1,295.8 
		199.2,305 	"/>
</g>
</svg>
